<?xml version="1.0" encoding="utf-8"?>
<!-- Generator: Adobe Illustrator 16.0.0, SVG Export Plug-In . SVG Version: 6.00 Build 0)  -->
<!DOCTYPE svg PUBLIC "-//W3C//DTD SVG 1.1//EN" "http://www.w3.org/Graphics/SVG/1.1/DTD/svg11.dtd">
<svg version="1.1" id="Layer_1" xmlns="http://www.w3.org/2000/svg" xmlns:xlink="http://www.w3.org/1999/xlink" x="0px" y="0px"
	 width="610px" height="118px" viewBox="0 0 610 118" style="enable-background:new 0 0 610 118;" xml:space="preserve">
<g id="layer1" transform="translate(0,-308.2677)">
	
		<g id="g3954" transform="translate(1314.2856,-2434.2857)">
		<path id="rect3900" style="fill:#EF3125;" d="M-1313.1,2744.2v114.9h28.4v-7.2h-21.1v-100.5
			h100.5v100.5h-51.1v7.2h58.3v-114.9H-1313.1z"/>
	</g>
</g>
<path style="fill:#A2A2A2;" d="M140.3,109.3h10.9c2.8,0,4.9-1,6.3-2.9c1.4-2,2.1-4.9,2.1-8.8V51.2h-14.8v-6.7h23.3v53.1
	c0,3-0.3,5.6-1,8c-0.7,2.4-1.7,4.4-3.1,6.1s-3.1,2.9-5.1,3.7c-2,0.8-4.3,1.2-6.8,1.2h-11.8V109.3z M159.6,35.1
	c-0.9,0-1.4-0.5-1.4-1.4v-8.1c0-0.9,0.5-1.4,1.4-1.4h6.7c0.9,0,1.4,0.5,1.4,1.4v8.1c0,0.9-0.5,1.4-1.4,1.4H159.6z"/>
<path style="fill:#A2A2A2;" d="M202.7,98.1c-3.6,0-6.7-0.6-9.5-1.7c-2.8-1.2-5.1-2.9-7.1-5.2c-2-2.4-3.4-5.4-4.3-8.8
	c-0.9-3.4-1.4-7.3-1.4-11.7c0-8.8,1.9-15.6,5.7-20.3c3.8-4.7,9.4-7,16.6-7c3.7,0,7,0.6,9.7,1.8c2.7,1.2,5.1,2.9,6.9,5.2
	c3.8,4.7,5.7,11.5,5.7,20.3c0,4.4-0.5,8.4-1.4,11.8c-0.9,3.4-2.4,6.3-4.3,8.7c-1.9,2.3-4.2,4-7,5.2
	C209.6,97.5,206.4,98.1,202.7,98.1z M202.7,90.8c4.4,0,7.7-1.7,9.9-5.1c2.2-3.4,3.4-8.4,3.4-15c0-6.6-1.1-11.6-3.4-15.1
	c-2.2-3.4-5.5-5.1-9.9-5.1c-4.3,0-7.6,1.7-9.9,5.1c-2.2,3.4-3.4,8.4-3.4,15.1c0,6.6,1.1,11.6,3.4,15
	C195.1,89.1,198.4,90.8,202.7,90.8z"/>
<path style="fill:#A2A2A2;" d="M262.8,98.1c-4,0-7.6-0.6-10.8-1.8c-3.2-1.2-5.9-3-8.1-5.4c-2.2-2.4-3.9-5.3-5.1-8.6S237,75,237,70.8
	c0-4.4,0.6-8.2,1.8-11.5c1.2-3.3,2.8-6.1,4.9-8.5c2.3-2.5,4.9-4.4,8-5.6c3-1.2,6.3-1.8,9.8-1.8c3.5,0,6.5,0.6,9.2,1.7
	c2.6,1.1,4.9,2.8,6.7,5c1.9,2.2,3.3,4.8,4.3,7.9c1,3.1,1.5,6.6,1.5,10.6v4.2H246V73c0,5.7,1.5,10.1,4.5,13.2
	c1.4,1.5,3.2,2.6,5.2,3.4c2,0.8,4.5,1.2,7.3,1.2c2.8,0,5.7-0.4,8.6-1.3c3-0.9,6.2-2.2,9.6-4v8.5c-1.6,0.7-3.2,1.3-4.8,1.8
	c-1.6,0.5-3.1,0.9-4.6,1.3c-1.5,0.3-3,0.6-4.5,0.7C265.7,98,264.3,98.1,262.8,98.1z M274.5,66c-0.1-2.7-0.4-5-1-6.9
	c-0.6-1.9-1.5-3.5-2.5-4.6c-1.1-1.3-2.5-2.3-4.1-2.9c-1.6-0.7-3.5-1-5.5-1c-4.2,0-7.6,1.4-10.3,4.1c-2.7,2.8-4.3,6.6-4.8,11.4
	L274.5,66z"/>
<path style="fill:#A2A2A2;" d="M318.3,96c-2-0.8-3.7-2-5.2-3.8c-2.8-3.3-4.2-8-4.2-14V31h-13.7v-6.7h22.3v54c0,3.9,0.7,6.8,2.1,8.7
	c0.7,1,1.6,1.8,2.7,2.2c1,0.5,2.2,0.7,3.6,0.7h10v7.3H325C322.5,97.1,320.3,96.7,318.3,96z"/>
<path style="fill:#EF3125;" d="M365.4,98.1c-1.4,0-2.8-0.1-4.2-0.2c-1.4-0.1-2.8-0.3-4.2-0.6c-1.2-0.2-2.6-0.6-4.3-1
	c-1.6-0.4-3.3-0.9-4.9-1.4V86c2,1,3.7,1.8,5.1,2.3c1.4,0.5,2.8,1,4.1,1.4c1.4,0.4,2.8,0.7,4.1,0.9c1.3,0.2,2.7,0.3,4.1,0.3
	c3.8,0,6.7-0.8,8.8-2.3c1.1-0.8,1.9-1.8,2.4-2.8c0.5-1.1,0.7-2.2,0.7-3.3c0-2.2-0.9-3.9-2.7-5.3c-1.8-1.4-4.7-2.4-8.7-3.2l-0.4-0.1
	l-3.2-0.7c-2.3-0.5-4.4-1.1-6.2-1.9c-1.8-0.8-3.3-1.8-4.6-3c-2.3-2.3-3.4-5.4-3.4-9.4c0-2.5,0.4-4.7,1.3-6.7
	c0.9-1.9,2.1-3.6,3.8-4.9c1.8-1.4,3.9-2.5,6.3-3.1c2.5-0.6,5.2-1,8.2-1c1.3,0,2.7,0.1,4,0.2c1.3,0.1,2.7,0.3,4,0.6
	c1.2,0.2,2.4,0.6,3.7,1c1.3,0.4,2.6,0.8,3.9,1.4v8.4c-2.5-1.4-5-2.5-7.4-3.2c-1.2-0.3-2.5-0.6-3.8-0.8c-1.3-0.2-2.6-0.3-4-0.3
	c-1.8,0-3.4,0.2-4.9,0.5c-1.4,0.3-2.6,0.8-3.6,1.4c-1.9,1.3-2.9,3.2-2.9,5.8c0,1.1,0.2,2.1,0.5,3s0.9,1.6,1.6,2.2
	c0.7,0.6,1.9,1.1,3.6,1.7c1.7,0.5,4,1.1,7.1,1.7l3.4,0.7c2.2,0.4,4.1,1.1,5.7,1.9c1.6,0.8,2.9,1.8,4,3c2.2,2.4,3.3,5.6,3.3,9.5
	c0,2.7-0.5,5-1.4,7c-0.9,2-2.3,3.7-4.1,5.1c-1.9,1.5-4.1,2.6-6.6,3.3C371.2,97.7,368.4,98.1,365.4,98.1z"/>
<path style="fill:#EF3125;" d="M415.4,98.1c-5.4,0-9.7-1.5-12.8-4.5c-1.5-1.4-2.7-3.1-3.5-5.1c-0.8-1.9-1.3-4.3-1.3-7
	c0-5.7,2-10.1,5.9-13.2c3.9-3,9.6-4.5,17.1-4.5h11.5v-1.4c0-2-0.3-3.8-0.8-5.3c-0.5-1.6-1.3-2.8-2.4-3.8c-1-0.9-2.4-1.6-4.1-2.1
	c-1.7-0.5-3.6-0.7-5.9-0.7c-3,0-5.9,0.4-8.9,1.3c-3,0.8-5.9,2.1-8.7,3.7v-8.6c1.3-0.5,2.8-1,4.3-1.5c1.6-0.5,3.2-0.9,4.8-1.3
	c2.8-0.6,5.7-0.9,8.5-0.9c2.2,0,4.2,0.2,6,0.5c1.8,0.3,3.5,0.8,5,1.5c1.4,0.6,2.8,1.4,4.1,2.4c1.3,0.9,2.4,2,3.3,3.3
	c0.7,0.9,1.2,1.8,1.6,2.8c0.4,1,0.7,2,0.9,2.9c0.5,2.3,0.7,5.7,0.7,10.3v10.7c0.1,1.8,0.1,3.4,0.1,4.8c0,1.4,0.1,2.6,0.3,3.8
	c0.2,1.3,0.3,2.5,0.5,3.7c0.2,1.1,0.4,2,0.5,2.6c0.2,1,0.5,1.9,0.7,2.7c0.3,0.9,0.5,1.4,0.5,1.5h-8.6c-0.2-0.4-0.3-0.9-0.6-1.7
	c-0.2-0.7-0.5-1.5-0.7-2.4c-0.2-0.7-0.3-1.4-0.4-2.1c-0.1-0.7-0.2-1.3-0.3-1.8c-0.9,1.6-2.1,2.9-3.5,4.1c-1.4,1.2-2.8,2.2-4.2,2.9
	c-1.5,0.8-3.1,1.3-4.7,1.7C419,97.9,417.2,98.1,415.4,98.1z M417.1,90.9c4.7,0,8.4-1.6,11.1-4.9c2.7-3.4,4.1-7.9,4.1-13.6v-1.9
	h-10.9c-5,0-8.7,0.9-11.3,2.6c-1.3,0.9-2.3,2-2.9,3.3c-0.6,1.3-0.9,2.8-0.9,4.6c0,1.6,0.2,3,0.7,4.2c0.5,1.2,1.2,2.2,2.1,3.1
	c0.9,0.8,2,1.4,3.3,1.9C413.8,90.7,415.3,90.9,417.1,90.9z"/>
<path style="fill:#EF3125;" d="M471.6,98.1c-5.3,0-9.3-1.8-11.9-5.3c-2.6-3.5-3.9-8.8-3.9-15.8V44.6h8.6V77c0,4.7,0.8,8.2,2.5,10.3
	c0.8,1.1,1.8,1.9,3.1,2.4c1.2,0.6,2.8,0.9,4.6,0.9c4,0,7.1-1.4,9.3-4.3c2.1-2.8,3.2-6.9,3.2-12.2V44.6h8.6v52.1h-7.8l-0.8-7.8
	c-1.6,3-3.6,5.3-6.2,6.8C478.2,97.3,475.1,98.1,471.6,98.1z"/>
<path style="fill:#EF3125;" d="M507.9,44.6h7.8l0.8,6.7c1.5-2.6,3.4-4.6,5.7-5.9s5.1-2,8.2-2c3.1,0,5.9,0.6,8.4,1.8
	c2.5,1.2,4.6,3,6.4,5.5c1.8,2.5,3.1,5.4,4,8.7c0.9,3.4,1.3,7.2,1.3,11.4c0,8.5-1.8,15.2-5.4,20c-3.6,4.8-8.5,7.3-14.8,7.3
	c-1.8,0-3.3-0.2-4.6-0.5c-1.3-0.4-2.5-0.9-3.7-1.5c-2.4-1.4-4.3-3.4-5.6-5.9v26.4h-8.6V44.6z M529.1,90.8c4.2,0,7.3-1.7,9.4-5.1
	c2.1-3.4,3.1-8.4,3.1-15.1c0-6.6-1-11.7-3.1-15.1c-2.1-3.4-5.2-5.1-9.4-5.1c-4.2,0-7.3,1.7-9.5,5.1c-2.1,3.4-3.2,8.4-3.2,15.1
	c0,6.6,1.1,11.6,3.2,15C521.8,89.1,525,90.8,529.1,90.8z"/>
<path style="fill:#EF3125;" d="M588.5,98.1c-4,0-7.6-0.6-10.8-1.8c-3.2-1.2-5.9-3-8.1-5.4c-2.2-2.4-3.9-5.3-5.1-8.6
	c-1.2-3.4-1.7-7.2-1.7-11.4c0-4.4,0.6-8.2,1.8-11.5c1.2-3.3,2.8-6.1,4.9-8.5c2.3-2.5,4.9-4.4,8-5.6c3-1.2,6.3-1.8,9.8-1.8
	c3.5,0,6.5,0.6,9.2,1.7c2.6,1.1,4.9,2.8,6.7,5c1.9,2.2,3.3,4.8,4.3,7.9c1,3.1,1.5,6.6,1.5,10.6v4.2h-37.1V73
	c0,5.7,1.5,10.1,4.5,13.2c1.4,1.5,3.2,2.6,5.2,3.4c2,0.8,4.5,1.2,7.3,1.2c2.8,0,5.7-0.4,8.6-1.3c3-0.9,6.2-2.2,9.6-4v8.5
	c-1.6,0.7-3.2,1.3-4.8,1.8c-1.6,0.5-3.1,0.9-4.6,1.3c-1.5,0.3-3,0.6-4.5,0.7C591.4,98,590,98.1,588.5,98.1z M600.3,66
	c-0.1-2.7-0.4-5-1-6.9s-1.5-3.5-2.5-4.6c-1.1-1.3-2.5-2.3-4.1-2.9c-1.6-0.7-3.5-1-5.5-1c-4.2,0-7.6,1.4-10.3,4.1
	c-2.7,2.8-4.3,6.6-4.8,11.4L600.3,66z"/>
<g>
	<path style="fill:#EF3125;" d="M75.3,97.9c-1.4,0-2.8-0.1-4.2-0.2c-1.4-0.1-2.8-0.3-4.2-0.6c-1.2-0.2-2.6-0.6-4.3-1
		c-1.6-0.4-3.3-0.9-4.9-1.4v-8.9c2,1,3.7,1.8,5.1,2.3c1.4,0.5,2.8,1,4.1,1.4c1.4,0.4,2.8,0.7,4.1,0.9c1.3,0.2,2.7,0.3,4.1,0.3
		c3.8,0,6.7-0.8,8.8-2.3c1.1-0.8,1.9-1.8,2.4-2.8c0.5-1.1,0.7-2.2,0.7-3.3c0-2.2-0.9-3.9-2.7-5.3c-1.8-1.4-4.7-2.4-8.7-3.2l-0.4-0.1
		L72.1,73c-2.3-0.5-4.4-1.1-6.2-1.9c-1.8-0.8-3.3-1.8-4.6-3c-2.3-2.3-3.4-5.4-3.4-9.4c0-2.5,0.4-4.7,1.3-6.7
		c0.9-1.9,2.1-3.6,3.8-4.9c1.8-1.4,3.9-2.5,6.3-3.1c2.5-0.6,5.2-1,8.2-1c1.3,0,2.7,0.1,4,0.2c1.3,0.1,2.7,0.3,4,0.6
		c1.2,0.2,2.4,0.6,3.7,1c1.3,0.4,2.6,0.8,3.9,1.4v8.4c-2.5-1.4-5-2.5-7.4-3.2c-1.2-0.3-2.5-0.6-3.8-0.8c-1.3-0.2-2.6-0.3-4-0.3
		c-1.8,0-3.4,0.2-4.9,0.5c-1.4,0.3-2.6,0.8-3.6,1.4c-1.9,1.3-2.9,3.2-2.9,5.8c0,1.1,0.2,2.1,0.5,3s0.9,1.6,1.6,2.2s1.9,1.1,3.6,1.7
		c1.7,0.5,4,1.1,7.1,1.7l3.4,0.7c2.2,0.4,4.1,1.1,5.7,1.9c1.6,0.8,2.9,1.8,4,3c2.2,2.4,3.3,5.6,3.3,9.5c0,2.7-0.5,5-1.4,7
		c-0.9,2-2.3,3.7-4.1,5.1c-1.9,1.5-4.1,2.6-6.6,3.3C81.1,97.5,78.3,97.9,75.3,97.9z"/>
	<path style="fill:#EF3125;" d="M21.5,109.3h6.9c2.8,0,4.9-1,6.3-2.9c1.4-2,2.1-4.9,2.1-8.8V51.1H22v-6.7h23.4v53.2c0,3-0.3,5.6-1,8
		c-0.7,2.4-1.7,4.4-3.1,6.1c-1.4,1.7-3.1,2.9-5.1,3.7c-2,0.8-4.3,1.2-6.8,1.2h-7.8V109.3z M36.8,34.9c-0.9,0-1.4-0.5-1.4-1.4v-8.1
		c0-0.9,0.5-1.4,1.4-1.4h6.7c0.9,0,1.4,0.5,1.4,1.4v8.1c0,0.9-0.5,1.4-1.4,1.4H36.8z"/>
</g>
</svg>
