<?xml version="1.0" encoding="utf-8"?>
<!-- Generator: Adobe Illustrator 16.0.0, SVG Export Plug-In . SVG Version: 6.00 Build 0)  -->
<!DOCTYPE svg PUBLIC "-//W3C//DTD SVG 1.1//EN" "http://www.w3.org/Graphics/SVG/1.1/DTD/svg11.dtd">
<svg version="1.1" id="Layer_1" xmlns="http://www.w3.org/2000/svg" xmlns:xlink="http://www.w3.org/1999/xlink" x="0px" y="0px"
	 width="640px" height="480px" viewBox="0 0 640 480" enable-background="new 0 0 640 480" xml:space="preserve">
<g id="layer1" transform="translate(0,-308.2677)" inkscape:label="Layer 1" inkscape:groupmode="layer">
	
		<g id="g3954" transform="translate(1314.2856,-2434.2857)" inkscape:export-ydpi="300" inkscape:export-xdpi="300" inkscape:export-filename="/home/idfl/Documents/logo-full-1.png">
		<path id="rect3900" inkscape:connector-curvature="0" fill="#EF3125" d="M-1307.112,2898.892v114.899h28.351v-7.211h-21.147
			v-100.483h100.485v100.483h-51.085v7.211h58.295v-114.899H-1307.112z"/>
	</g>
</g>
<path fill="#A2A2A2" d="M146.31,264.013h10.903c2.796,0,4.893-0.963,6.291-2.889c1.398-1.957,2.097-4.877,2.097-8.761v-46.458
	H150.83v-6.663h23.345v53.121c0,2.951-0.342,5.607-1.025,7.97c-0.684,2.36-1.724,4.379-3.122,6.057s-3.099,2.912-5.102,3.705
	c-2.003,0.791-4.264,1.187-6.78,1.187H146.31V264.013z M165.601,189.783c-0.932,0-1.398-0.466-1.398-1.398v-8.061
	c0-0.932,0.466-1.398,1.398-1.398h6.71c0.932,0,1.398,0.466,1.398,1.398v8.061c0,0.932-0.466,1.398-1.398,1.398H165.601z"/>
<path fill="#A2A2A2" d="M208.746,252.783c-3.573,0-6.75-0.583-9.529-1.748c-2.781-1.164-5.134-2.911-7.061-5.242
	c-1.957-2.423-3.401-5.351-4.333-8.783c-0.932-3.432-1.397-7.323-1.397-11.672c0-8.822,1.911-15.594,5.731-20.316
	c3.821-4.69,9.35-7.037,16.589-7.037c3.728,0,6.966,0.599,9.715,1.794c2.749,1.196,5.056,2.944,6.92,5.243
	c3.82,4.722,5.731,11.479,5.731,20.27c0,4.443-0.474,8.388-1.421,11.835c-0.947,3.449-2.384,6.338-4.31,8.667
	c-1.864,2.3-4.187,4.039-6.967,5.22C215.634,252.192,212.411,252.783,208.746,252.783z M208.746,245.514
	c4.38,0,7.688-1.708,9.925-5.125c2.236-3.385,3.354-8.387,3.354-15.004c0-6.617-1.118-11.633-3.354-15.051
	c-2.237-3.385-5.545-5.079-9.925-5.079c-4.35,0-7.642,1.694-9.879,5.079c-2.237,3.418-3.355,8.435-3.355,15.051
	c0,6.617,1.118,11.619,3.355,15.004C201.104,243.806,204.396,245.514,208.746,245.514z"/>
<path fill="#A2A2A2" d="M268.801,252.783c-4.007,0-7.603-0.613-10.787-1.841c-3.185-1.227-5.895-3.036-8.131-5.429
	c-2.236-2.391-3.937-5.273-5.102-8.644s-1.748-7.183-1.748-11.44c0-4.38,0.59-8.225,1.771-11.533
	c1.18-3.308,2.812-6.128,4.893-8.458c2.267-2.516,4.923-4.387,7.968-5.615c3.044-1.227,6.322-1.841,9.833-1.841
	c3.479,0,6.531,0.575,9.156,1.724c2.625,1.15,4.869,2.812,6.733,4.986c1.864,2.174,3.286,4.808,4.264,7.898
	c0.979,3.091,1.468,6.625,1.468,10.601v4.194h-37.139v0.28c0,5.685,1.491,10.081,4.473,13.188c1.429,1.491,3.161,2.639,5.196,3.448
	c2.034,0.809,4.465,1.211,7.292,1.211c2.826,0,5.7-0.435,8.621-1.305c3.012-0.9,6.197-2.22,9.552-3.961v8.528
	c-1.647,0.684-3.247,1.273-4.8,1.771c-1.554,0.498-3.092,0.915-4.613,1.258c-1.491,0.341-2.982,0.59-4.473,0.746
	C271.736,252.705,270.261,252.783,268.801,252.783z M280.544,220.678c-0.063-2.672-0.412-4.963-1.049-6.873
	c-0.637-1.911-1.468-3.456-2.493-4.637c-1.118-1.305-2.501-2.283-4.147-2.936c-1.647-0.652-3.495-0.979-5.545-0.979
	c-4.194,0-7.612,1.368-10.251,4.101c-2.672,2.765-4.256,6.555-4.753,11.369L280.544,220.678z"/>
<path fill="#A2A2A2" d="M324.292,250.639c-1.973-0.774-3.705-2.032-5.196-3.774c-2.827-3.292-4.24-7.951-4.24-13.978v-47.25H301.11
	v-6.71h22.32v53.96c0,3.883,0.715,6.788,2.144,8.713c0.746,1.024,1.638,1.771,2.68,2.237c1.041,0.466,2.228,0.699,3.564,0.699
	h10.019v7.269h-10.857C328.493,251.805,326.265,251.415,324.292,250.639z"/>
<path fill="#EF3125" d="M371.396,252.759c-1.368,0-2.774-0.069-4.218-0.21c-1.445-0.14-2.835-0.333-4.17-0.582
	c-1.213-0.249-2.633-0.591-4.265-1.025c-1.631-0.434-3.27-0.916-4.915-1.445v-8.852c1.987,0.993,3.681,1.763,5.078,2.306
	c1.398,0.543,2.765,1.001,4.102,1.374c1.428,0.404,2.81,0.715,4.147,0.933c1.334,0.217,2.717,0.325,4.146,0.325
	c3.76,0,6.695-0.775,8.808-2.329c1.087-0.808,1.879-1.754,2.377-2.842c0.496-1.087,0.744-2.19,0.744-3.309
	c0-2.174-0.916-3.938-2.748-5.289c-1.833-1.351-4.724-2.431-8.668-3.238l-0.372-0.093l-3.216-0.653
	c-2.329-0.465-4.403-1.086-6.222-1.864c-1.816-0.776-3.347-1.786-4.588-3.028c-2.269-2.267-3.402-5.389-3.402-9.367
	c0-2.516,0.428-4.737,1.281-6.663c0.854-1.925,2.121-3.557,3.798-4.893c1.771-1.428,3.883-2.462,6.338-3.099
	c2.453-0.636,5.203-0.956,8.247-0.956c1.335,0,2.673,0.063,4.007,0.187c1.336,0.125,2.657,0.311,3.962,0.559
	c1.181,0.249,2.414,0.567,3.704,0.955c1.289,0.39,2.585,0.847,3.891,1.375v8.387c-2.485-1.429-4.955-2.5-7.408-3.215
	c-1.242-0.342-2.493-0.606-3.752-0.792c-1.258-0.187-2.603-0.28-4.031-0.28c-1.802,0-3.425,0.155-4.868,0.466
	c-1.445,0.311-2.649,0.777-3.611,1.398c-1.927,1.274-2.89,3.215-2.89,5.825c0,1.088,0.179,2.082,0.536,2.982s0.893,1.631,1.607,2.19
	c0.715,0.56,1.902,1.111,3.564,1.654c1.662,0.544,4.031,1.111,7.106,1.701l3.448,0.653c2.237,0.435,4.147,1.056,5.731,1.863
	c1.584,0.808,2.905,1.802,3.961,2.982c2.174,2.392,3.262,5.561,3.262,9.506c0,2.672-0.475,4.994-1.421,6.966
	c-0.948,1.974-2.307,3.659-4.077,5.057c-1.896,1.49-4.109,2.594-6.641,3.309C377.226,252.401,374.438,252.759,371.396,252.759z"/>
<path fill="#EF3125" d="M421.351,252.759c-5.404,0-9.677-1.507-12.813-4.521c-1.49-1.428-2.656-3.114-3.494-5.056
	c-0.839-1.94-1.259-4.278-1.259-7.013c0-5.747,1.958-10.142,5.871-13.187c3.852-3.013,9.568-4.52,17.147-4.52h11.511v-1.351
	c0-1.988-0.265-3.758-0.793-5.313c-0.527-1.553-1.32-2.811-2.376-3.774c-1.024-0.933-2.377-1.631-4.055-2.097
	c-1.677-0.466-3.634-0.699-5.871-0.699c-2.952,0-5.917,0.42-8.899,1.259c-3.014,0.838-5.918,2.066-8.714,3.681v-8.574
	c1.305-0.497,2.75-0.994,4.334-1.491c1.584-0.497,3.185-0.916,4.799-1.258c2.826-0.59,5.669-0.886,8.528-0.886
	c2.205,0,4.209,0.163,6.011,0.489c1.801,0.326,3.479,0.815,5.032,1.468c1.428,0.621,2.788,1.405,4.077,2.353
	c1.288,0.948,2.383,2.043,3.286,3.285c0.652,0.902,1.18,1.849,1.584,2.843c0.402,0.994,0.714,1.973,0.931,2.936
	c0.498,2.268,0.746,5.701,0.746,10.298v10.671c0.062,1.802,0.109,3.386,0.14,4.753c0.031,1.367,0.124,2.641,0.28,3.821
	c0.154,1.304,0.332,2.532,0.535,3.681c0.202,1.149,0.381,2.02,0.535,2.609c0.218,0.963,0.467,1.872,0.747,2.727
	c0.278,0.854,0.45,1.358,0.513,1.515h-8.622c-0.155-0.373-0.35-0.924-0.582-1.655c-0.232-0.729-0.458-1.529-0.675-2.399
	c-0.156-0.683-0.303-1.375-0.443-2.074c-0.14-0.698-0.24-1.296-0.303-1.794c-0.901,1.554-2.059,2.936-3.472,4.148
	c-1.414,1.21-2.803,2.175-4.17,2.888c-1.491,0.777-3.069,1.344-4.73,1.701C425.024,252.579,423.246,252.759,421.351,252.759z
	 M423.122,245.582c4.691,0,8.389-1.646,11.09-4.938c2.734-3.356,4.102-7.875,4.102-13.561v-1.911h-10.857
	c-4.97,0-8.729,0.87-11.276,2.609c-1.336,0.901-2.307,2.012-2.912,3.333c-0.606,1.32-0.909,2.85-0.909,4.589
	c0,1.616,0.248,3.022,0.746,4.217c0.495,1.197,1.195,2.213,2.096,3.052c0.9,0.809,1.995,1.444,3.285,1.911
	C419.773,245.349,421.32,245.582,423.122,245.582z"/>
<path fill="#EF3125" d="M477.602,252.759c-5.313,0-9.272-1.755-11.881-5.266c-2.61-3.479-3.915-8.761-3.915-15.843v-32.338h8.574
	v32.338c0,4.722,0.839,8.171,2.517,10.345c0.807,1.056,1.824,1.872,3.052,2.445c1.227,0.576,2.771,0.861,4.636,0.861
	c4.039,0,7.131-1.427,9.273-4.285c2.143-2.827,3.216-6.897,3.216-12.209v-29.496h8.621v52.097h-7.783l-0.838-7.829
	c-1.556,3.044-3.62,5.328-6.197,6.849C484.234,251.981,481.143,252.759,477.602,252.759z"/>
<path fill="#EF3125" d="M513.851,199.218h7.782l0.839,6.663c1.46-2.609,3.37-4.582,5.73-5.917s5.11-2.004,8.249-2.004
	c3.105,0,5.9,0.605,8.387,1.817c2.484,1.211,4.628,3.045,6.431,5.499c1.802,2.454,3.146,5.367,4.031,8.737
	c0.884,3.371,1.327,7.184,1.327,11.44c0,8.543-1.801,15.221-5.405,20.038c-3.604,4.846-8.543,7.269-14.818,7.269
	c-1.771,0-3.309-0.18-4.613-0.536c-1.304-0.357-2.532-0.862-3.681-1.514c-2.423-1.398-4.303-3.355-5.638-5.872v26.421h-8.621
	V199.218z M535.146,245.49c4.162,0,7.284-1.693,9.365-5.08c2.08-3.386,3.122-8.403,3.122-15.051c0-6.647-1.042-11.665-3.122-15.051
	c-2.081-3.385-5.203-5.079-9.365-5.079c-4.164,0-7.316,1.694-9.46,5.079c-2.144,3.418-3.215,8.434-3.215,15.051
	c0,6.617,1.071,11.619,3.215,15.004C527.83,243.781,530.982,245.49,535.146,245.49z"/>
<path fill="#EF3125" d="M594.508,252.759c-4.008,0-7.604-0.614-10.787-1.841c-3.186-1.227-5.894-3.036-8.132-5.428
	c-2.236-2.393-3.938-5.274-5.102-8.645c-1.166-3.37-1.747-7.184-1.747-11.44c0-4.38,0.59-8.224,1.771-11.533
	c1.18-3.309,2.811-6.127,4.893-8.457c2.267-2.517,4.923-4.388,7.969-5.616c3.043-1.226,6.32-1.84,9.831-1.84
	c3.479,0,6.531,0.575,9.156,1.724c2.625,1.149,4.869,2.812,6.733,4.985c1.864,2.176,3.285,4.808,4.264,7.899
	c0.978,3.092,1.469,6.625,1.469,10.601v4.194h-37.14v0.279c0,5.685,1.491,10.081,4.475,13.187c1.428,1.492,3.159,2.641,5.195,3.448
	c2.034,0.809,4.465,1.213,7.292,1.213c2.828,0,5.7-0.435,8.621-1.306c3.012-0.9,6.196-2.221,9.553-3.96v8.528
	c-1.648,0.683-3.247,1.273-4.8,1.77c-1.555,0.497-3.093,0.916-4.613,1.259c-1.492,0.342-2.982,0.589-4.473,0.745
	C597.443,252.681,595.968,252.759,594.508,252.759z M606.25,220.653c-0.063-2.671-0.412-4.962-1.049-6.873s-1.467-3.456-2.492-4.636
	c-1.117-1.305-2.501-2.283-4.147-2.936c-1.647-0.653-3.494-0.979-5.545-0.979c-4.194,0-7.612,1.368-10.252,4.101
	c-2.671,2.766-4.255,6.555-4.752,11.37L606.25,220.653z"/>
<g>
	<path fill="#EF3125" d="M81.271,252.568c-1.367,0-2.773-0.07-4.218-0.21c-1.444-0.141-2.834-0.334-4.17-0.583
		c-1.211-0.249-2.633-0.591-4.264-1.025c-1.631-0.434-3.27-0.916-4.916-1.444v-8.853c1.988,0.994,3.681,1.764,5.079,2.306
		c1.398,0.544,2.764,1.003,4.101,1.375c1.428,0.404,2.812,0.715,4.147,0.932c1.336,0.218,2.718,0.326,4.147,0.326
		c3.758,0,6.694-0.775,8.807-2.329c1.087-0.808,1.879-1.755,2.376-2.843c0.497-1.087,0.746-2.189,0.746-3.308
		c0-2.174-0.917-3.938-2.749-5.289c-1.833-1.351-4.723-2.43-8.667-3.238l-0.373-0.093l-3.215-0.653
		c-2.33-0.465-4.404-1.086-6.22-1.863c-1.818-0.776-3.348-1.786-4.59-3.029c-2.268-2.268-3.402-5.389-3.402-9.366
		c0-2.516,0.426-4.737,1.281-6.664c0.854-1.926,2.121-3.556,3.798-4.893c1.771-1.428,3.883-2.461,6.337-3.098
		c2.454-0.636,5.202-0.956,8.247-0.956c1.336,0,2.672,0.063,4.008,0.187c1.335,0.124,2.656,0.311,3.961,0.559
		c1.18,0.249,2.415,0.567,3.705,0.955c1.289,0.389,2.586,0.847,3.891,1.375v8.387c-2.485-1.428-4.956-2.5-7.409-3.215
		c-1.243-0.341-2.494-0.605-3.751-0.792c-1.258-0.187-2.602-0.28-4.03-0.28c-1.802,0-3.425,0.156-4.87,0.466
		c-1.445,0.311-2.649,0.777-3.611,1.398c-1.927,1.274-2.889,3.215-2.889,5.825c0,1.088,0.179,2.082,0.536,2.982
		s0.893,1.631,1.608,2.19s1.902,1.111,3.564,1.654c1.662,0.544,4.031,1.111,7.106,1.701l3.448,0.652
		c2.237,0.435,4.147,1.057,5.731,1.864c1.584,0.808,2.905,1.802,3.961,2.982c2.173,2.392,3.261,5.561,3.261,9.506
		c0,2.672-0.474,4.994-1.421,6.966c-0.948,1.974-2.306,3.658-4.077,5.056c-1.896,1.491-4.109,2.595-6.641,3.309
		C87.103,252.21,84.315,252.568,81.271,252.568z"/>
	<path fill="#EF3125" d="M27.472,263.961h6.914c2.8,0,4.9-0.964,6.3-2.893c1.4-1.961,2.101-4.887,2.101-8.775V205.76H27.991v-6.675
		h23.383v53.208c0,2.956-0.342,5.616-1.027,7.98c-0.685,2.365-1.727,4.388-3.127,6.068c-1.4,1.681-3.103,2.918-5.111,3.711
		c-2.007,0.793-4.271,1.19-6.791,1.19h-7.847V263.961z M42.787,189.61c-0.934,0-1.4-0.467-1.4-1.4v-8.075
		c0-0.934,0.466-1.401,1.4-1.401h6.721c0.934,0,1.4,0.467,1.4,1.401v8.075c0,0.933-0.466,1.4-1.4,1.4H42.787z"/>
</g>
</svg>
