<?xml version="1.0" encoding="utf-8"?>
<!-- Generator: Adobe Illustrator 16.0.0, SVG Export Plug-In . SVG Version: 6.00 Build 0)  -->
<!DOCTYPE svg PUBLIC "-//W3C//DTD SVG 1.1//EN" "http://www.w3.org/Graphics/SVG/1.1/DTD/svg11.dtd">
<svg version="1.1" xmlns="http://www.w3.org/2000/svg" xmlns:xlink="http://www.w3.org/1999/xlink" x="0px" y="0px"
	 width="3117.957px" height="759.314px" viewBox="1466.224 -1534.767 3117.957 759.314"
	 enable-background="new 1466.224 -1534.767 3117.957 759.314" xml:space="preserve">
<g id="logo" sodipodi:docname="logo2.svg" inkscape:version="0.48.4 r9939" xmlns:dc="http://purl.org/dc/elements/1.1/" xmlns:inkscape="http://www.inkscape.org/namespaces/inkscape" xmlns:sodipodi="http://sodipodi.sourceforge.net/DTD/sodipodi-0.dtd" xmlns:rdf="http://www.w3.org/1999/02/22-rdf-syntax-ns#" xmlns:svg="http://www.w3.org/2000/svg" xmlns:cc="http://creativecommons.org/ns#">
	
		<sodipodi:namedview  id="base" bordercolor="#666666" showgrid="false" pagecolor="#ffffff" inkscape:zoom="0.35" borderopacity="1.0" inkscape:cx="3019.9603" inkscape:cy="2892.8521" inkscape:current-layer="layer3" inkscape:pageshadow="2" inkscape:pageopacity="0.0" inkscape:document-units="px" inkscape:window-y="464" inkscape:window-x="53" inkscape:window-width="1867" inkscape:window-height="1059" inkscape:window-maximized="1">
		</sodipodi:namedview>
	<g id="layer2" transform="translate(0,-308.2677)" inkscape:label="Layer" inkscape:groupmode="layer">
	</g>
	<g id="layer1" transform="translate(0,-308.2677)" inkscape:label="Layer 1" inkscape:groupmode="layer">
		
			<g id="g3954" transform="translate(1314.2856,-2434.2857)" inkscape:export-ydpi="300" inkscape:export-xdpi="300" inkscape:export-filename="/home/idfl/Documents/logo-full-1.png">
			<path id="rect3900" inkscape:connector-curvature="0" fill="#EF3125" d="M155.52,1210.541v601.997h148.543v-37.776H193.264
				v-526.475h526.479v526.475l-267.65,0v37.776h305.425v-601.997L155.52,1210.541z"/>
		</g>
	</g>
</g>
<g id="first_name">
</g>
<g id="name">
	<path fill="#A2A2A2" d="M2198.789-967.866h57.129c14.648,0,25.635-5.047,32.959-15.137c7.324-10.254,10.986-25.555,10.986-45.898
		v-243.408h-77.393v-34.912h122.314v278.32c0,15.461-1.793,29.377-5.371,41.748c-3.582,12.367-9.033,22.949-16.357,31.738
		s-16.234,15.259-26.732,19.409s-22.34,6.226-35.523,6.226h-62.012V-967.866z M2299.863-1356.782c-4.883,0-7.324-2.441-7.324-7.324
		v-42.236c0-4.883,2.441-7.324,7.324-7.324h35.156c4.883,0,7.324,2.441,7.324,7.324v42.236c0,4.883-2.441,7.324-7.324,7.324
		H2299.863z"/>
	<path fill="#A2A2A2" d="M2525.914-1026.704c-18.719,0-35.361-3.052-49.926-9.155c-14.568-6.104-26.898-15.259-36.988-27.466
		c-10.254-12.695-17.822-28.034-22.705-46.021c-4.883-17.982-7.324-38.368-7.324-61.157c0-46.223,10.01-81.703,30.029-106.445
		c20.02-24.574,48.988-36.865,86.914-36.865c19.531,0,36.5,3.136,50.904,9.399c14.404,6.268,26.488,15.423,36.254,27.466
		c20.02,24.742,30.029,60.143,30.029,106.201c0,23.277-2.482,43.945-7.445,62.012c-4.967,18.066-12.494,33.203-22.584,45.41
		c-9.766,12.047-21.934,21.16-36.498,27.344C2562.005-1029.797,2545.117-1026.704,2525.914-1026.704z M2525.914-1064.79
		c22.949,0,40.283-8.949,52.002-26.855c11.719-17.738,17.578-43.945,17.578-78.613s-5.859-60.951-17.578-78.857
		c-11.719-17.738-29.053-26.611-52.002-26.611c-22.789,0-40.039,8.873-51.758,26.611c-11.719,17.906-17.578,44.189-17.578,78.857
		s5.859,60.875,17.578,78.613C2485.875-1073.739,2503.125-1064.79,2525.914-1064.79z"/>
	<path fill="#A2A2A2" d="M2840.567-1026.704c-20.996,0-39.836-3.216-56.518-9.644c-16.686-6.428-30.885-15.907-42.604-28.442
		c-11.719-12.531-20.629-27.626-26.732-45.288c-6.104-17.658-9.156-37.636-9.156-59.937c0-22.949,3.09-43.091,9.277-60.425
		c6.184-17.334,14.729-32.104,25.635-44.312c11.879-13.184,25.795-22.987,41.748-29.419c15.949-6.428,33.119-9.644,51.514-9.644
		c18.227,0,34.219,3.014,47.975,9.033c13.752,6.023,25.512,14.732,35.277,26.123c9.766,11.395,17.213,25.188,22.34,41.382
		c5.127,16.197,7.689,34.71,7.689,55.542v21.973h-194.58v1.465c0,29.785,7.813,52.818,23.438,69.092
		c7.484,7.813,16.561,13.836,27.223,18.066c10.658,4.234,23.395,6.348,38.207,6.348c14.809,0,29.865-2.277,45.166-6.836
		c15.785-4.719,32.471-11.635,50.049-20.752v44.678c-8.629,3.582-17.01,6.676-25.146,9.277c-8.141,2.605-16.197,4.799-24.17,6.592
		c-7.813,1.789-15.625,3.09-23.438,3.906C2855.948-1027.112,2848.215-1026.704,2840.567-1026.704z M2902.09-1194.917
		c-0.328-13.996-2.158-26.001-5.492-36.011c-3.338-10.01-7.691-18.104-13.063-24.292c-5.859-6.836-13.104-11.963-21.729-15.381
		c-8.629-3.418-18.311-5.127-29.053-5.127c-21.973,0-39.879,7.164-53.711,21.484c-14,14.488-22.301,34.344-24.902,59.57
		L2902.09-1194.917z"/>
	<path fill="#A2A2A2" d="M3061.304-1037.934c-10.338-4.066-19.41-10.658-27.223-19.775c-14.813-17.25-22.217-41.664-22.217-73.242
		v-247.559h-72.021v-35.156h116.943v282.715c0,20.348,3.742,35.564,11.23,45.654c3.906,5.371,8.584,9.277,14.039,11.719
		c5.451,2.441,11.676,3.662,18.676,3.662h52.49v38.086h-56.885C3083.314-1031.831,3071.638-1033.864,3061.304-1037.934z"/>
	<path fill="#EF3125" d="M3308.091-1026.832c-7.164,0-14.527-0.366-22.096-1.099s-14.854-1.751-21.85-3.052
		c-6.348-1.305-13.795-3.09-22.34-5.371c-8.545-2.277-17.131-4.799-25.756-7.568v-46.387c10.414,5.211,19.287,9.239,26.611,12.085
		c7.324,2.85,14.484,5.249,21.484,7.202c7.484,2.117,14.729,3.746,21.729,4.883c6.996,1.141,14.24,1.709,21.729,1.709
		c19.691,0,35.072-4.066,46.143-12.207c5.695-4.23,9.846-9.193,12.451-14.893c2.602-5.695,3.906-11.475,3.906-17.334
		c0-11.391-4.803-20.63-14.404-27.71c-9.605-7.08-24.742-12.733-45.41-16.968l-1.953-0.488l-16.846-3.418
		c-12.207-2.441-23.072-5.695-32.594-9.766c-9.521-4.066-17.539-9.357-24.047-15.869c-11.883-11.879-17.822-28.236-17.822-49.072
		c0-13.184,2.234-24.818,6.713-34.912c4.475-10.09,11.109-18.635,19.898-25.635c9.277-7.484,20.344-12.897,33.203-16.235
		c12.855-3.334,27.26-5.005,43.213-5.005c6.996,0,13.996,0.328,20.996,0.977c6.996,0.652,13.916,1.629,20.752,2.93
		c6.184,1.305,12.652,2.972,19.408,5.005c6.752,2.037,13.551,4.437,20.387,7.202v43.945c-13.023-7.484-25.963-13.1-38.818-16.846
		c-6.512-1.789-13.063-3.174-19.654-4.15s-13.633-1.465-21.117-1.465c-9.441,0-17.945,0.816-25.514,2.441
		c-7.568,1.629-13.877,4.07-18.92,7.324c-10.094,6.676-15.137,16.846-15.137,30.518c0,5.699,0.934,10.906,2.807,15.625
		c1.869,4.723,4.678,8.545,8.424,11.475c3.742,2.93,9.967,5.821,18.676,8.667c8.705,2.85,21.119,5.821,37.232,8.911l18.066,3.418
		c11.719,2.281,21.729,5.535,30.029,9.766c8.301,4.234,15.217,9.441,20.752,15.625c11.391,12.535,17.09,29.137,17.09,49.805
		c0,14-2.484,26.165-7.447,36.499c-4.967,10.338-12.084,19.165-21.361,26.489c-9.93,7.813-21.527,13.592-34.791,17.334
		C3338.646-1028.705,3324.041-1026.832,3308.091-1026.832z"/>
	<path fill="#EF3125" d="M3569.833-1026.832c-28.32,0-50.701-7.893-67.139-23.682c-7.813-7.484-13.916-16.315-18.311-26.489
		c-4.395-10.17-6.592-22.419-6.592-36.743c0-30.109,10.254-53.139,30.762-69.092c20.18-15.785,50.129-23.682,89.844-23.682h60.303
		v-7.08c0-10.414-1.385-19.691-4.15-27.832c-2.77-8.137-6.92-14.729-12.451-19.775c-5.371-4.883-12.451-8.545-21.24-10.986
		s-19.043-3.662-30.762-3.662c-15.465,0-31.006,2.197-46.631,6.592c-15.789,4.395-31.006,10.826-45.654,19.287v-44.922
		c6.836-2.602,14.404-5.207,22.705-7.813c8.301-2.602,16.682-4.799,25.146-6.592c14.809-3.09,29.701-4.639,44.678-4.639
		c11.555,0,22.053,0.854,31.494,2.563c9.438,1.709,18.227,4.272,26.367,7.69c7.484,3.258,14.605,7.366,21.361,12.329
		c6.752,4.967,12.49,10.704,17.213,17.212c3.418,4.723,6.184,9.686,8.301,14.893c2.113,5.211,3.742,10.338,4.883,15.381
		c2.602,11.883,3.906,29.869,3.906,53.955v55.908c0.324,9.441,0.568,17.742,0.732,24.902c0.16,7.164,0.648,13.836,1.465,20.02
		c0.813,6.836,1.746,13.268,2.807,19.287c1.057,6.023,1.992,10.582,2.809,13.672c1.137,5.047,2.441,9.808,3.906,14.282
		c1.465,4.479,2.357,7.122,2.686,7.935h-45.166c-0.816-1.953-1.832-4.841-3.053-8.667c-1.221-3.822-2.402-8.015-3.539-12.573
		c-0.816-3.578-1.588-7.202-2.32-10.864s-1.262-6.794-1.586-9.399c-4.723,8.141-10.785,15.381-18.189,21.729
		c-7.408,6.348-14.689,11.395-21.85,15.137c-7.813,4.07-16.076,7.038-24.781,8.911
		C3589.078-1027.77,3579.759-1026.832,3569.833-1026.832z M3579.111-1064.429c24.574,0,43.945-8.625,58.105-25.879
		c14.32-17.578,21.484-41.26,21.484-71.045v-10.01h-56.885c-26.043,0-45.738,4.559-59.082,13.672
		c-7,4.723-12.086,10.54-15.26,17.456c-3.174,6.92-4.76,14.935-4.76,24.048c0,8.465,1.301,15.831,3.906,22.095
		c2.602,6.268,6.264,11.597,10.986,15.991c4.719,4.234,10.455,7.568,17.211,10.01
		C3561.57-1065.65,3569.669-1064.429,3579.111-1064.429z"/>
	<path fill="#EF3125" d="M3864.551-1026.832c-27.832,0-48.584-9.193-62.256-27.588c-13.672-18.227-20.508-45.898-20.508-83.008
		v-169.434h44.922v169.434c0,24.742,4.395,42.809,13.184,54.199c4.23,5.535,9.559,9.808,15.99,12.817
		c6.428,3.014,14.527,4.517,24.293,4.517c21.156,0,37.354-7.484,48.584-22.461c11.23-14.809,16.846-36.133,16.846-63.965v-154.541
		h45.166v272.949H3950l-4.395-41.016c-8.141,15.953-18.963,27.916-32.471,35.889
		C3899.299-1030.902,3883.106-1026.832,3864.551-1026.832z"/>
	<path fill="#EF3125" d="M4054.468-1307.349h40.771l4.395,34.912c7.648-13.672,17.658-24.006,30.029-31.006
		c12.367-6.996,26.771-10.498,43.213-10.498c16.273,0,30.922,3.174,43.945,9.521c13.02,6.348,24.25,15.953,33.691,28.809
		c9.438,12.859,16.479,28.118,21.117,45.776c4.639,17.662,6.959,37.64,6.959,59.937c0,44.762-9.441,79.754-28.32,104.98
		c-18.883,25.391-44.762,38.086-77.637,38.086c-9.277,0-17.334-0.938-24.17-2.808c-6.836-1.873-13.268-4.517-19.287-7.935
		c-12.695-7.324-22.545-17.578-29.541-30.762v138.428h-45.166V-1307.349z M4166.041-1064.918c21.809,0,38.166-8.869,49.072-26.611
		c10.902-17.738,16.357-44.025,16.357-78.857c0-34.828-5.455-61.115-16.357-78.857c-10.906-17.738-27.264-26.611-49.072-26.611
		c-21.813,0-38.33,8.873-49.561,26.611c-11.23,17.906-16.846,44.189-16.846,78.857s5.615,60.875,16.846,78.613
		C4127.71-1073.867,4144.228-1064.918,4166.041-1064.918z"/>
	<path fill="#EF3125" d="M4450.06-1026.832c-20.996,0-39.838-3.216-56.52-9.644c-16.686-6.428-30.883-15.907-42.602-28.442
		c-11.719-12.531-20.631-27.626-26.734-45.288c-6.104-17.658-9.154-37.636-9.154-59.937c0-22.949,3.09-43.091,9.277-60.425
		c6.184-17.334,14.729-32.104,25.635-44.312c11.879-13.184,25.795-22.987,41.748-29.419c15.949-6.428,33.119-9.644,51.514-9.644
		c18.227,0,34.217,3.014,47.973,9.033c13.752,6.023,25.514,14.732,35.279,26.123c9.766,11.395,17.211,25.188,22.338,41.382
		c5.127,16.197,7.691,34.71,7.691,55.542v21.973h-194.58v1.465c0,29.785,7.813,52.818,23.438,69.092
		c7.484,7.813,16.559,13.836,27.221,18.066c10.658,4.234,23.396,6.348,38.209,6.348c14.809,0,29.865-2.277,45.166-6.836
		c15.785-4.719,32.471-11.635,50.049-20.752v44.678c-8.629,3.582-17.01,6.676-25.146,9.277c-8.141,2.605-16.197,4.799-24.17,6.592
		c-7.813,1.789-15.625,3.09-23.438,3.906C4465.441-1027.24,4457.708-1026.832,4450.06-1026.832z M4511.583-1195.045
		c-0.328-13.996-2.16-26.001-5.494-36.011c-3.338-10.01-7.689-18.104-13.061-24.292c-5.859-6.836-13.104-11.963-21.729-15.381
		c-8.629-3.418-18.311-5.127-29.053-5.127c-21.973,0-39.879,7.164-53.711,21.484c-14,14.488-22.301,34.344-24.902,59.57
		L4511.583-1195.045z"/>
	<g>
		<path fill="#EF3125" d="M1858.03-1027.832c-7.164,0-14.527-0.366-22.096-1.099s-14.854-1.751-21.85-3.052
			c-6.348-1.305-13.795-3.09-22.34-5.371c-8.545-2.277-17.131-4.799-25.756-7.568v-46.387c10.414,5.211,19.287,9.239,26.611,12.085
			c7.324,2.85,14.484,5.249,21.484,7.202c7.484,2.117,14.729,3.746,21.729,4.883c6.996,1.141,14.24,1.709,21.729,1.709
			c19.691,0,35.072-4.066,46.143-12.207c5.695-4.23,9.846-9.193,12.451-14.893c2.602-5.695,3.906-11.475,3.906-17.334
			c0-11.391-4.803-20.63-14.404-27.71c-9.605-7.08-24.742-12.733-45.41-16.968l-1.953-0.488l-16.846-3.418
			c-12.207-2.441-23.072-5.695-32.594-9.766c-9.521-4.066-17.539-9.357-24.047-15.869c-11.883-11.879-17.822-28.236-17.822-49.072
			c0-13.184,2.234-24.818,6.713-34.912c4.475-10.09,11.109-18.635,19.898-25.635c9.277-7.484,20.344-12.897,33.203-16.235
			c12.855-3.334,27.26-5.005,43.213-5.005c6.996,0,13.996,0.328,20.996,0.977c6.996,0.652,13.916,1.629,20.752,2.93
			c6.184,1.305,12.652,2.972,19.408,5.005c6.752,2.037,13.551,4.437,20.387,7.202v43.945c-13.023-7.484-25.963-13.1-38.818-16.846
			c-6.512-1.789-13.063-3.174-19.654-4.15s-13.633-1.465-21.117-1.465c-9.441,0-17.945,0.816-25.514,2.441
			c-7.568,1.629-13.877,4.07-18.92,7.324c-10.094,6.676-15.137,16.846-15.137,30.518c0,5.699,0.934,10.906,2.807,15.625
			c1.869,4.723,4.678,8.545,8.424,11.475c3.742,2.93,9.967,5.821,18.676,8.667c8.705,2.85,21.119,5.821,37.232,8.911l18.066,3.418
			c11.719,2.281,21.729,5.535,30.029,9.766c8.301,4.234,15.217,9.441,20.752,15.625c11.391,12.535,17.09,29.137,17.09,49.805
			c0,14-2.484,26.165-7.447,36.499c-4.967,10.338-12.084,19.165-21.361,26.489c-9.93,7.813-21.527,13.592-34.791,17.334
			C1888.584-1029.705,1873.979-1027.832,1858.03-1027.832z"/>
		<path fill="#EF3125" d="M1576.155-968.135h36.223c14.672,0,25.677-5.055,33.013-15.162c7.337-10.271,11.005-25.597,11.005-45.974
			v-243.807h-77.52v-34.969h122.515v278.776c0,15.486-1.796,29.425-5.38,41.816c-3.588,12.388-9.048,22.987-16.384,31.79
			c-7.337,8.804-16.262,15.284-26.776,19.441c-10.516,4.157-22.377,6.235-35.582,6.235h-41.113V-968.135z M1656.395-1357.689
			c-4.892,0-7.337-2.445-7.337-7.336v-42.305c0-4.891,2.445-7.336,7.337-7.336h35.214c4.891,0,7.336,2.445,7.336,7.336v42.305
			c0,4.891-2.445,7.336-7.336,7.336H1656.395z"/>
	</g>
</g>
<g id="phonetics">
	<g>
		<path fill="#A2A2A2" d="M3294.222-969.371h18.771l-77.651,166.27h-18.87L3294.222-969.371z"/>
		<path fill="#A2A2A2" d="M3365.594-819.006c-2.899,0-5.878-0.148-8.94-0.445c-3.063-0.296-6.012-0.708-8.842-1.234
			c-2.569-0.528-5.582-1.251-9.04-2.173c-3.458-0.922-6.933-1.942-10.423-3.063v-18.771c4.213,2.108,7.804,3.738,10.769,4.89
			c2.964,1.153,5.86,2.124,8.694,2.914c3.027,0.858,5.96,1.517,8.792,1.977c2.83,0.462,5.763,0.691,8.793,0.691
			c7.968,0,14.191-1.646,18.673-4.939c2.303-1.712,3.982-3.72,5.037-6.026c1.054-2.305,1.58-4.643,1.58-7.015
			c0-4.609-1.941-8.348-5.829-11.213c-3.886-2.865-10.012-5.152-18.375-6.866l-0.789-0.197l-6.819-1.384
			c-4.938-0.987-9.334-2.304-13.187-3.951c-3.854-1.646-7.1-3.787-9.732-6.422c-4.808-4.807-7.212-11.426-7.212-19.858
			c0-5.334,0.904-10.042,2.718-14.127c1.81-4.083,4.494-7.541,8.051-10.373c3.754-3.028,8.232-5.219,13.437-6.57
			c5.202-1.349,11.029-2.024,17.486-2.025c2.83,0,5.664,0.133,8.496,0.396c2.832,0.264,5.631,0.659,8.397,1.186
			c2.503,0.528,5.12,1.203,7.854,2.025c2.733,0.825,5.483,1.796,8.251,2.915v17.782c-5.272-3.028-10.508-5.3-15.709-6.816
			c-2.635-0.724-5.284-1.285-7.952-1.679c-2.668-0.396-5.519-0.594-8.547-0.594c-3.819,0-7.261,0.331-10.324,0.987
			c-3.062,0.66-5.614,1.648-7.657,2.964c-4.083,2.702-6.125,6.817-6.125,12.351c0,2.306,0.38,4.412,1.139,6.322
			c0.754,1.911,1.892,3.458,3.408,4.644c1.515,1.186,4.032,2.356,7.557,3.507c3.521,1.153,8.545,2.356,15.065,3.605l7.31,1.384
			c4.743,0.923,8.794,2.24,12.154,3.951c3.358,1.714,6.156,3.821,8.396,6.323c4.609,5.072,6.914,11.79,6.914,20.154
			c0,5.666-1.004,10.588-3.013,14.77c-2.009,4.184-4.89,7.754-8.644,10.719c-4.019,3.161-8.71,5.5-14.078,7.014
			C3377.958-819.765,3372.048-819.006,3365.594-819.006z"/>
		<path fill="#A2A2A2" d="M3522.444-877.517c0,17.128-4.104,30.851-12.316,41.17c-8.986,11.231-21.832,16.847-38.538,16.847
			c-12.494,0-22.887-3.72-31.168-11.162c-8.284-7.439-13.408-17.408-15.371-29.904l18.635-2.421
			c2.598,18.602,11.97,27.903,28.115,27.903c20.775,0,31.166-14.32,31.166-42.96c0-28.499-10.74-42.75-32.219-42.75
			c-13.479,0-21.972,7.546-25.483,22.639l-18.426-2.844c4.562-23.585,19.444-35.378,44.646-35.378
			c10.108,0,19.021,2.248,26.744,6.738c8.214,4.775,14.283,11.583,18.216,20.428
			C3520.443-900.156,3522.444-889.589,3522.444-877.517z"/>
		<path fill="#A2A2A2" d="M3562.511-933.904h-10.174v-32.799h10.174V-933.904z"/>
		<path fill="#A2A2A2" d="M3593.62-932.521h16.499l1.779,14.126c3.094-5.531,7.145-9.713,12.15-12.546
			c5.003-2.832,10.835-4.249,17.486-4.249c6.586,0,12.514,1.285,17.783,3.853c5.268,2.569,9.814,6.456,13.633,11.658
			c3.82,5.203,6.669,11.378,8.547,18.524c1.877,7.146,2.814,15.23,2.814,24.253c0,18.113-3.82,32.273-11.459,42.481
			c-7.641,10.274-18.114,15.412-31.417,15.412c-3.755,0-7.015-0.38-9.78-1.137c-2.768-0.758-5.371-1.828-7.806-3.211
			c-5.137-2.963-9.122-7.113-11.952-12.448v56.016h-18.278V-932.521z M3638.767-834.419c8.828,0,15.445-3.589,19.857-10.769
			c4.413-7.178,6.62-17.815,6.62-31.911c0-14.093-2.207-24.73-6.62-31.91c-4.412-7.179-11.029-10.768-19.857-10.768
			c-8.824,0-15.51,3.589-20.054,10.768c-4.544,7.246-6.815,17.882-6.815,31.91c0,14.029,2.271,24.634,6.815,31.812
			C3623.257-838.04,3629.943-834.419,3638.767-834.419z"/>
		<path fill="#A2A2A2" d="M3754.059-819.006c-8.495,0-16.122-1.301-22.871-3.903c-6.751-2.601-12.496-6.438-17.239-11.509
			c-4.742-5.071-8.348-11.179-10.817-18.326c-2.471-7.146-3.706-15.229-3.706-24.254c0-9.287,1.253-17.437,3.756-24.451
			c2.502-7.015,5.959-12.991,10.371-17.931c4.809-5.335,10.439-9.303,16.895-11.906c6.455-2.601,13.404-3.902,20.846-3.902
			c7.375,0,13.847,1.22,19.414,3.656c5.563,2.438,10.324,5.962,14.274,10.571c3.951,4.611,6.966,10.193,9.04,16.746
			c2.076,6.554,3.113,14.045,3.113,22.476v8.891l-78.739,0.001v0.593c0,12.053,3.161,21.373,9.484,27.959
			c3.027,3.161,6.701,5.598,11.014,7.31c4.315,1.714,9.468,2.569,15.462,2.569s12.087-0.922,18.276-2.766
			c6.388-1.91,13.14-4.709,20.252-8.398v18.079c-3.489,1.449-6.881,2.701-10.175,3.754c-3.295,1.055-6.553,1.941-9.781,2.667
			c-3.16,0.724-6.321,1.25-9.484,1.581C3760.283-819.172,3757.156-819.006,3754.059-819.006z M3778.956-887.076
			c-0.134-5.663-0.874-10.521-2.222-14.572c-1.353-4.05-3.113-7.327-5.288-9.831c-2.369-2.766-5.301-4.84-8.791-6.224
			c-3.493-1.384-7.411-2.074-11.757-2.074c-8.893,0-16.138,2.898-21.736,8.693c-5.664,5.863-9.022,13.897-10.076,24.106
			L3778.956-887.076z"/>
		<path fill="#A2A2A2" d="M3855.873-834.566h23.063v16.49h-66.182v-16.489h22.955v-85.233h-22.955v-16.601l66.182,0v16.601h-23.063
			V-834.566z"/>
		<path fill="#A2A2A2" d="M3971.83-969.371h18.771l-77.651,166.27h-18.869L3971.83-969.371z"/>
	</g>
</g>
</svg>
